<mxfile host="app.diagrams.net" modified="2023-07-17T14:33:12.665Z" agent="Mozilla/5.0 (Windows NT 10.0; Win64; x64) AppleWebKit/537.36 (KHTML, like Gecko) Chrome/114.0.0.0 Safari/537.36" version="21.6.2" etag="nq-sj6_z7kQ2-mgAQqQj" type="github">
  <diagram name="Page-1" id="S9p7Iw6OrFYZsopZIqkW">
    <mxGraphModel>
      <root>
        <mxCell id="0" />
        <mxCell id="1" parent="0" />
      </root>
    </mxGraphModel>
  </diagram>
</mxfile>
